<svg width="96" height="30" viewBox="0 0 96 30" fill="none" xmlns="http://www.w3.org/2000/svg">
<g id="Nestl&#195;&#169; Logo" clip-path="url(#clip0_768_30408)">
<g id="layer1">
<g id="g15902">
<g id="g15904">
<g id="g15910">
<path id="path15912" d="M50.7117 8.24949C50.5796 8.4157 50.5049 8.60129 50.5049 8.924V17.7971H50.4575C50.4575 17.7971 45.7787 9.13867 45.5526 8.7384C45.3924 8.45448 45.2136 8.25919 44.9781 8.11238C44.7426 7.97596 44.4978 7.88801 44.0274 7.88801H42.4836C42.1253 7.88801 41.8998 8.01474 41.7397 8.21072C41.6076 8.37622 41.5322 8.56251 41.5322 8.88452V21.4618C41.5322 21.7845 41.6076 21.9701 41.7397 22.1363C41.8998 22.3316 42.1253 22.4583 42.4836 22.4583H43.3589C43.7165 22.4583 43.9427 22.3316 44.1028 22.1363C44.2342 21.9701 44.3096 21.7845 44.3096 21.4618V12.3734H44.357C44.357 12.3734 49.2146 21.3053 49.4128 21.6377C49.6856 22.1065 50.1466 22.4583 50.8058 22.4583H52.3029C52.6605 22.4583 52.8867 22.3316 53.0468 22.1363C53.1782 21.9701 53.2536 21.7845 53.2536 21.4618V10.1158H72.9209C73.1191 10.1158 73.2692 10.0576 73.3826 9.95998C73.5047 9.84226 73.5614 9.68575 73.5614 9.45168V8.59159C73.5614 8.35683 73.5047 8.20033 73.3826 8.08329C73.2692 7.98565 73.1191 7.92679 72.9209 7.92679H51.4556C51.098 7.92679 50.8718 8.05421 50.7117 8.24949ZM59.2981 11.6109C56.031 11.6109 54.195 14.2597 54.195 17.0547C54.195 20.0352 56.1631 22.6543 59.3168 22.6543C60.8893 22.6543 62.4331 22.0387 63.3178 20.9535C63.7041 20.4847 64.015 19.8296 64.015 19.4293C64.015 19.2922 63.9863 19.1751 63.9116 19.0872C63.8362 18.9896 63.7227 18.9307 63.5253 18.9307H62.0095C61.7079 18.9307 61.5011 19.0477 61.3503 19.2825C60.908 19.957 60.2675 20.3088 59.3261 20.3088C57.9138 20.3088 57.0011 19.1945 56.935 17.973H63.4879C63.7795 17.973 63.9863 17.9044 64.1277 17.7583C64.2878 17.6018 64.3632 17.3767 64.3632 16.9564C64.3632 15.6766 63.9769 14.3477 63.1677 13.3311C62.3391 12.3048 61.0774 11.6109 59.2981 11.6109ZM69.3996 11.6109C66.8204 11.6109 65.1258 12.8817 65.1258 14.9142C65.1258 15.6371 65.38 16.2237 65.7943 16.6828C66.2746 17.2209 66.9618 17.5921 67.9599 17.8559L70.1155 18.4224C70.7086 18.5789 71.2357 18.7645 71.2357 19.3019C71.2357 20.1329 70.3884 20.4161 69.485 20.4161C69.042 20.4161 68.581 20.3282 68.2041 20.1329C67.9406 19.9958 67.7151 19.8005 67.5549 19.5366C67.4135 19.3116 67.3668 19.1454 67.15 19.0186C67.0179 18.9404 66.8577 18.9307 66.6416 18.9307H65.4741C65.2199 18.9307 65.0978 19.0089 65.013 19.1163C64.9283 19.2236 64.8996 19.3801 64.8996 19.5366C64.8996 19.9272 65.0317 20.4161 65.3426 20.8559C66.0578 21.8524 67.5549 22.6543 69.4657 22.6543C71.3491 22.6543 73.957 21.8427 73.957 19.2236C73.957 18.5498 73.7682 17.973 73.42 17.5041C72.9776 16.9079 72.3472 16.4972 71.2737 16.214L69.1368 15.6468C68.2514 15.4128 67.8371 15.2466 67.8371 14.6794C67.8371 14.1323 68.3082 13.6926 69.3996 13.6926C70.0401 13.6926 70.6239 13.8394 71.0008 14.2501C71.3111 14.5922 71.255 14.768 71.4999 14.9045C71.65 14.9827 71.8194 14.9827 72.0836 14.9827H73.1471C73.3166 14.9827 73.4393 14.9536 73.5327 14.8456C73.6088 14.7577 73.6555 14.6212 73.6555 14.3962C73.6555 13.8879 73.3352 13.2335 72.7708 12.7349C72.0176 12.0604 70.8314 11.6109 69.3996 11.6109ZM75.2653 11.9828H74.7383C74.5408 11.9828 74.39 12.041 74.2773 12.1386C74.1545 12.2563 74.0978 12.4128 74.0978 12.6469V13.3214C74.0978 13.5562 74.1545 13.712 74.2773 13.8297C74.39 13.9273 74.5408 13.9862 74.7383 13.9862H75.2653V18.8621C75.2653 20.1128 75.5949 20.8946 76.2067 21.5207C76.7718 22.0968 77.5063 22.4583 78.7866 22.4583H79.5866C79.7847 22.4583 79.9348 22.4001 80.0482 22.3025C80.1703 22.1848 80.2457 22.0283 80.2457 21.7942V20.9438C80.2457 20.709 80.1703 20.5532 80.0482 20.4355C79.9348 20.3379 79.7847 20.279 79.5866 20.279H79.4738C78.9654 20.279 78.6172 20.1426 78.3817 19.9078C78.0994 19.6343 77.958 19.2139 77.958 18.6669V13.9862H79.672C79.8694 13.9862 80.0202 13.9273 80.133 13.8297C80.2551 13.712 80.3118 13.5562 80.3118 13.3214V12.6469C80.3118 12.4128 80.2551 12.2563 80.133 12.1386C80.0202 12.041 79.8694 11.9828 79.672 11.9828H77.9674V8.79657C77.9674 8.54243 77.892 8.35683 77.7792 8.21072C77.6378 8.03482 77.4403 7.92679 77.1487 7.92679H76.0846C75.7924 7.92679 75.5949 8.03482 75.4535 8.21072C75.3407 8.35683 75.2653 8.54243 75.2653 8.79657V11.9828ZM81.0276 21.5885C81.0276 21.8427 81.1023 22.0283 81.2158 22.1751C81.3565 22.351 81.5547 22.4583 81.8462 22.4583H82.9664C83.2586 22.4583 83.4561 22.351 83.5975 22.1751C83.7103 22.0283 83.7857 21.8427 83.7857 21.5885V8.79727C83.7857 8.54312 83.7103 8.35753 83.5975 8.21072C83.4561 8.03482 83.2586 7.92679 82.9664 7.92679H81.8462C81.5547 7.92679 81.3565 8.03482 81.2158 8.21072C81.1023 8.35753 81.0276 8.54312 81.0276 8.79727V21.5885ZM56.9537 15.8913C57.0758 14.6891 57.9611 13.7902 59.3075 13.7902C60.6258 13.7902 61.5385 14.6891 61.6612 15.8913H56.9537ZM93.9819 10.1158C94.1794 10.1158 94.3302 10.0576 94.4429 9.95998C94.5657 9.84226 94.6224 9.68575 94.6224 9.45168V8.54243C94.6224 8.19063 94.5564 8.01474 94.4429 7.88801C94.3395 7.77028 94.1701 7.70242 93.9819 7.70242C93.8312 7.70242 93.681 7.72181 93.4269 7.75089L85.9133 8.52304C85.6971 8.54243 85.5937 8.61098 85.5183 8.69893C85.4336 8.79657 85.3955 8.924 85.3955 9.09989V9.6075C85.3955 9.80348 85.4336 9.89142 85.4996 9.96968C85.5837 10.0673 85.7064 10.1158 85.8759 10.1158H93.9819ZM89.8302 11.6109C86.5631 11.6109 84.7271 14.2597 84.7271 17.0547C84.7271 20.0352 86.6952 22.6543 89.8489 22.6543C91.4214 22.6543 92.9652 22.0387 93.8498 20.9535C94.2361 20.4847 94.547 19.8296 94.547 19.4293C94.547 19.2922 94.5183 19.1751 94.4429 19.0872C94.3682 18.9896 94.2548 18.9307 94.0573 18.9307H92.5415C92.24 18.9307 92.0332 19.0477 91.8824 19.2825C91.44 19.957 90.7996 20.3088 89.8582 20.3088C88.4458 20.3088 87.5325 19.1945 87.4671 17.973H94.0387C94.3302 17.973 94.5377 17.9044 94.6785 17.7583C94.8386 17.6018 94.914 17.3767 94.914 16.9564C94.914 15.6766 94.5277 14.3477 93.7184 13.3311C92.8898 12.3048 91.6095 11.6109 89.8302 11.6109ZM87.4858 15.8913C87.6085 14.6891 88.4932 13.7902 89.8395 13.7902C91.1578 13.7902 92.0705 14.6891 92.1933 15.8913H87.4858Z" fill="#939CA1"/>
</g>
<g id="g15914">
<path id="path15916" d="M30.9145 10.2329C28.4774 6.4594 26.3358 5.18796 25.7333 4.58963C25.0715 3.92967 24.5671 3.18177 24.2462 2.82167C23.5324 2.01213 22.6083 1.01284 21.0886 1.01284C19.6215 1.01284 18.6521 2.0052 18.3372 2.86252C18.2458 3.10698 18.1737 3.40614 18.1083 3.51487C17.9642 3.76001 17.3157 4.90888 17.0469 5.36454H18.2591L17.6693 6.52033C18.3572 6.36383 18.8482 6.24818 19.5034 6.24818C20.0865 6.24818 20.5054 6.39153 20.6889 6.77172C21.0298 7.47946 21.0298 9.62068 21.6063 11.2328C22.1433 12.748 23.4536 14.2307 24.9274 15.3664C24.9468 15.3796 24.9668 15.3865 24.9928 15.3865C25.0648 15.3865 25.1109 15.3325 25.1109 15.2778C25.1109 15.2369 25.0975 15.2099 25.0648 15.176C23.8333 13.8976 22.8312 12.4835 22.2941 10.9337C21.7631 9.42401 21.8484 7.30217 21.3834 6.3569C21.0752 5.73157 20.4207 5.56883 19.8176 5.56883C19.3332 5.56883 18.8809 5.67063 18.6714 5.71772L19.2018 4.7863H18.3045C18.4946 4.44005 18.6908 4.12011 18.7895 3.92967C18.8742 3.76624 18.9076 3.56265 19.0123 3.28426C19.3526 2.39301 20.1058 1.82862 21.0886 1.82862C22.3201 1.82862 23.0407 2.65131 23.7545 3.47401C24.0821 3.85488 24.6192 4.65057 25.2416 5.24197C25.6673 5.64986 26.4799 6.10553 27.7308 7.44552C28.4514 8.22044 29.29 9.22665 30.174 10.5729C33.3383 15.3796 35.4145 19.6156 36.5741 22.9202L36.5547 22.9341C33.2336 20.5948 30.3575 18.385 28.0391 15.6586C26.3945 13.721 24.9668 11.4773 23.7218 8.61447C23.6364 8.42403 23.5651 8.24744 23.4863 8.06393C23.4536 7.98914 23.421 7.96836 23.3682 7.96836C23.3029 7.96836 23.2568 8.01615 23.2568 8.08401C23.2568 8.1588 23.2895 8.32224 23.3616 8.64841C24.0234 11.613 25.8574 14.2715 27.8162 16.4813C29.7683 18.678 31.9753 20.5678 33.79 21.9417L35.2051 26.1432C35.2378 26.2457 35.2771 26.3544 35.2771 26.4562C35.2771 26.531 35.2571 26.5919 35.2117 26.6328C35.1724 26.6736 35.1203 26.6944 35.0022 26.6944H34.5766C34.3931 26.6944 34.3204 26.6667 34.255 26.6127C34.1896 26.558 34.1443 26.4763 34.1109 26.3814C33.9868 25.9867 33.2396 23.7769 33.0962 23.3281C33.0695 23.2471 33.0234 23.2194 32.9714 23.2194C32.906 23.2194 32.86 23.2741 32.86 23.3351C32.86 23.3898 32.8793 23.4507 32.9127 23.6411C33.1022 24.6473 33.325 25.7761 33.4164 26.2048C33.4564 26.4015 33.5018 26.5857 33.5018 26.7214C33.5018 26.8433 33.4758 26.9118 33.3777 27.0136L32.9387 27.4762C32.834 27.585 32.7746 27.612 32.6899 27.612C32.5851 27.612 32.4997 27.5372 32.4603 27.3467C31.9626 24.9327 31.2094 21.9417 31.0126 21.1114C30.9666 20.9286 30.9339 20.8261 30.8291 20.8261C30.7377 20.8261 30.705 20.894 30.705 20.9757C30.705 21.0366 30.7177 21.1114 30.7244 21.1661C30.8425 22.0228 31.3208 25.1439 31.8379 27.9928C31.93 28.4824 32.1068 28.7539 32.5131 28.7539C32.6965 28.7539 32.8727 28.6791 33.0368 28.5164C33.3056 28.2373 33.3837 28.1625 33.7053 27.8363C33.9341 27.605 34.0916 27.5102 34.4845 27.5102H35.4539C35.6834 27.5102 35.8075 27.4492 35.9189 27.3398C36.0237 27.238 36.0891 27.0954 36.0891 26.8911C36.0891 26.6805 36.037 26.5109 35.965 26.2997C35.7161 25.6065 34.9168 23.2603 34.6807 22.601L34.7007 22.5871C35.5193 23.2333 36.7115 24.056 37.2359 24.056C37.3994 24.056 37.4981 23.9812 37.4981 23.7159C37.4981 22.4653 35.4933 17.3179 30.9145 10.2329Z" fill="#939CA1"/>
</g>
<g id="g15918">
<path id="path15920" d="M8.42663 2.33266C8.56407 2.01965 8.86562 1.8022 9.22589 1.8022C9.71692 1.8022 10.1099 2.19693 10.1099 2.72046C10.1099 3.02586 9.97245 3.29178 9.75629 3.45452C9.80232 3.6318 9.83501 3.78761 9.83501 3.93719C9.83501 4.50851 9.50744 4.90947 8.90499 5.12069C8.82626 5.46694 8.68215 5.77995 8.44598 6.01125C8.05302 6.40528 7.65339 6.40528 7.65339 6.56871C7.65339 6.65735 7.71277 6.71137 7.87622 6.71137C8.60343 6.71137 9.31729 6.29033 9.40269 5.58951C10.0972 5.34506 10.5162 4.61723 10.5162 4.03969C10.5162 3.88941 10.5028 3.76061 10.4441 3.63872C10.6343 3.44759 10.8571 3.12142 10.8571 2.63875C10.8571 2.21701 10.6796 1.78904 10.3654 1.47603C10.0905 1.19695 9.70358 1.01344 9.25191 1.01344C8.59676 1.01344 8.17111 1.38116 7.92893 1.74126C7.2144 1.74126 6.29104 2.56396 6.29104 3.74052H6.19297C6.12692 3.33264 5.72128 3.05979 5.38036 3.03971C5.10549 2.18308 4.48303 1.44902 3.46094 1.44902C3.34351 1.44902 3.19941 1.45595 3.07465 1.47603C2.77376 1.19003 2.43951 1.01344 1.9745 1.01344C1.08317 1.01344 0.355957 1.75511 0.355957 2.69276C0.355957 3.27793 0.61148 3.67889 1.09651 4.03276C1.09651 4.03276 1.08984 4.10755 1.08984 4.14148C1.08984 4.88939 1.87575 6.05903 3.04196 6.05903C3.04196 6.24878 3.27146 6.50777 3.52698 6.55486V6.65043H3.42824C1.82372 6.65043 1.14254 7.45304 1.14254 7.98973C0.664186 8.19402 0.355957 8.74456 0.355957 9.25425C0.355957 10.2674 1.07049 10.9883 2.01386 10.9883C2.32809 10.9883 2.649 10.8595 2.87183 10.6822C3.03528 10.7431 3.24477 10.7771 3.46094 10.7771C3.91327 10.7771 4.41765 10.6143 4.77124 10.0769C4.82395 10.0839 4.86932 10.0839 4.92202 10.0839C5.49845 10.0839 5.99616 9.68914 6.25835 9.17253C6.32373 9.04373 6.34975 8.94193 6.34975 8.86645C6.34975 8.79235 6.31706 8.73072 6.24501 8.73072C6.15361 8.73072 6.14026 8.81936 5.97681 8.97586C5.60987 9.32281 5.04611 9.45161 4.46969 9.45161C4.18814 9.88027 3.84122 10.1046 3.44159 10.1046C3.1467 10.1046 2.91786 10.0229 2.68169 9.8595C2.49155 10.0769 2.25604 10.1656 2.02653 10.1656C1.50948 10.1656 1.14254 9.79163 1.14254 9.24732C1.14254 8.86645 1.37805 8.52712 1.70563 8.39762C1.76434 7.72451 2.45886 7.26884 3.3235 7.26884C3.43492 7.26884 3.54633 7.27576 3.66442 7.28961C3.79518 7.07217 4.10942 6.84087 4.55508 6.77924C4.64715 6.76608 4.71854 6.75915 4.77124 6.73215C4.82395 6.70444 4.84997 6.65043 4.84997 6.5888C4.84997 6.53478 4.82995 6.487 4.77792 6.45307C4.73188 6.42606 4.65316 6.4129 4.56175 6.39213C4.14878 6.31041 3.65775 6.04518 3.4089 5.39907C2.41949 5.39907 1.69229 4.57638 1.69229 3.65188V3.59094C1.36471 3.45452 1.14254 3.12835 1.14254 2.74055C1.14254 2.23086 1.52883 1.82298 2.01986 1.82298C2.31475 1.82298 2.57027 1.97256 2.73439 2.19693C2.87183 2.15607 3.02861 2.14222 3.17939 2.14222C3.91327 2.14222 4.69919 2.6249 4.84997 3.56324C5.79334 3.65188 6.01617 4.4815 6.07488 4.82845C6.10757 5.00504 6.13359 5.15462 6.24501 5.15462C6.36309 5.15462 6.38911 5.01819 6.42848 4.83468C6.50053 4.48843 6.62529 4.20935 6.87414 3.9919C6.87414 3.10065 7.51595 2.33266 8.42663 2.33266Z" fill="#939CA1"/>
</g>
<g id="g15922">
<path id="path15924" d="M10.3326 7.6629C10.0244 8.11857 9.80222 8.34294 9.10103 9.19957C8.17768 10.3353 7.69265 11.2535 6.88672 13.293C7.01815 13.2791 7.20829 13.266 7.41778 13.266C7.52253 13.266 7.60726 13.266 7.74536 13.2722L7.84343 13.0547C8.29577 12.0485 8.90422 10.6885 9.75619 9.64139L10.0511 9.28129C10.9284 8.21414 11.4721 7.58119 11.8131 6.12623C11.9311 5.60962 12.0292 5.14772 12.3635 4.81394C12.6644 4.51477 13.0446 4.38597 13.4309 4.38597C13.7585 4.38597 14.0013 4.46768 14.3549 4.6235C14.6758 4.76615 14.7933 4.79385 15.1342 4.79385C15.2523 4.79385 15.337 4.78693 15.4157 4.78L14.9574 5.41918L15.5799 5.87485C14.7999 6.11238 14.3876 6.89491 14.2495 7.25502C14.2235 7.32981 14.2108 7.37759 14.2108 7.42537C14.2108 7.48008 14.2369 7.5341 14.3156 7.5341C14.4003 7.5341 14.4657 7.46623 14.5771 7.32981C14.9574 6.85406 15.259 6.52719 16.66 6.07222L15.6713 5.29661L16.4178 4.16159H15.7173C15.2716 4.16159 14.9767 4.15467 14.5905 3.97116C14.0661 3.71978 13.7979 3.61105 13.3329 3.61105C12.7631 3.61105 12.2454 3.82158 11.8197 4.22946C11.328 4.69829 11.1772 5.32431 11.0011 6.01128C10.863 6.54104 10.6996 7.12621 10.3326 7.6629Z" fill="#939CA1"/>
</g>
<g id="g15926">
<path id="path15928" d="M11.8391 12.2939C11.4655 12.8174 10.9545 13.5037 10.5615 14.2315C10.6863 14.2931 11.0993 14.5244 11.2434 14.6055C11.695 13.8984 12.3242 13.0286 12.7365 12.3687C13.1101 11.7704 13.2609 11.512 13.2869 10.7094C13.2936 10.5737 13.2936 10.4442 13.3062 10.3154C13.3389 9.90059 13.4443 9.47885 13.824 9.09174C14.1055 8.79881 14.5118 8.64993 14.9181 8.64993C15.3111 8.64993 15.5399 8.76488 15.8808 8.76488C16.123 8.76488 16.2998 8.70394 16.4572 8.643L16.582 8.59522L16.2804 9.34382L16.9876 9.64229C16.536 9.93452 15.5466 11.1928 15.5466 12.6817C15.5466 13.2191 15.6253 13.7149 15.7367 14.1567C15.7501 14.2045 15.7761 14.2523 15.8481 14.2523C15.9135 14.2523 15.9595 14.2114 15.9662 14.1366L15.9729 13.9801C15.9922 13.5245 16.0249 12.8043 16.2017 12.1582C16.4966 11.0702 17.2892 10.0502 18.0818 9.56057L16.9549 9.05089L17.44 7.8203L16.9096 7.93595C16.5887 8.00382 16.3525 8.06476 16.071 8.06476C15.8875 8.06476 15.678 8.03775 15.4291 7.97612C15.239 7.92903 15.0355 7.88817 14.748 7.88817C14.2303 7.88817 13.6732 8.09177 13.2936 8.47264C12.599 9.15961 12.5597 9.90059 12.5136 10.5605C12.4549 11.4373 12.2975 11.6547 11.8391 12.2939Z" fill="#939CA1"/>
</g>
<g id="g15930">
<path id="path15932" d="M28.6476 12.7072C28.6016 12.6462 28.5622 12.6185 28.5102 12.6185C28.4315 12.6185 28.3921 12.6732 28.3921 12.7342C28.3921 12.8297 28.4575 12.9454 28.6216 13.2314C29.1194 14.1081 29.7353 14.9917 30.4953 15.822C31.314 16.7258 32.2769 17.5685 33.3058 18.3234L33.6267 18.5547C33.6728 18.5893 33.7055 18.6094 33.7448 18.6094C33.8102 18.6094 33.8563 18.5415 33.8563 18.4868C33.8563 18.4529 33.8429 18.4182 33.8035 18.3843C32.8474 17.4806 31.8185 16.3788 30.8556 15.3186C30.1016 14.482 29.3289 13.5984 28.6476 12.7072Z" fill="#939CA1"/>
</g>
<g id="g15934">
<path id="path15936" d="M7.56878 9.62695C7.66691 9.45729 7.96198 9.04248 8.08015 8.91298C7.57545 7.85275 6.74965 6.83962 6.38915 6.43797L6.0874 6.74405C6.43521 7.26759 7.01802 8.28072 7.56878 9.62695Z" fill="#939CA1"/>
</g>
<g id="g15938">
<path id="path15940" d="M2.76692 3.48612C2.70751 3.43141 2.69482 3.39748 2.69482 3.35662C2.69482 3.30953 2.72754 3.25482 2.79964 3.25482C2.82567 3.25482 2.85171 3.26175 2.88509 3.2756C3.36975 3.47919 3.78299 3.71742 4.15016 4.00965C4.45792 4.25411 4.75967 4.55396 5.05407 4.91406L4.77903 5.24023C4.43856 4.9473 3.33704 3.98957 2.76692 3.48612Z" fill="#939CA1"/>
</g>
<g id="g15942">
<path id="path15944" d="M7.41144 5.76758L7.05762 5.54321C7.2866 4.97881 7.56899 4.46221 7.90278 4.0744C8.13911 3.79602 8.36208 3.57095 8.61109 3.34727C8.66984 3.29949 8.70255 3.25863 8.7613 3.25863C8.82739 3.25863 8.87345 3.31334 8.87345 3.36736C8.87345 3.39436 8.8601 3.4283 8.83406 3.46915C8.43418 4.11526 7.65377 5.39363 7.41144 5.76758Z" fill="#939CA1"/>
</g>
<g id="g15946">
<path id="path15948" d="M2.96956 8.9199C2.88411 8.95383 2.84472 8.97461 2.79933 8.97461C2.72723 8.97461 2.69385 8.91298 2.69385 8.86519C2.69385 8.8181 2.71388 8.7911 2.75994 8.74955C3.56571 8.09721 4.27402 7.8389 5.2507 7.66855L5.3682 8.07712L2.96956 8.9199Z" fill="#939CA1"/>
</g>
<g id="g15950">
<path id="path15952" d="M19.7715 3.64378C19.7715 3.40556 19.8897 2.9769 20.3158 2.9769C20.4601 2.9769 20.5977 3.01083 20.7092 3.06554C20.8669 3.14033 20.9717 3.24906 20.9717 3.3647C20.9717 3.48728 20.8535 3.60985 20.6765 3.75943C20.4928 3.91525 20.2571 4.05859 20.0667 4.05859C19.8376 4.05859 19.7715 3.83353 19.7715 3.64378Z" fill="#939CA1"/>
</g>
<g id="g15954">
<path id="path15956" d="M13.1226 5.62855C13.1226 5.33631 13.2929 5.01638 13.6208 5.01638C13.7651 5.01638 13.9354 5.07732 14.0603 5.20058C14.1324 5.26845 14.1652 5.34255 14.1652 5.41803C14.1652 5.58146 14.0142 5.73728 13.8372 5.846C13.6996 5.92771 13.5554 5.98242 13.4311 5.98242C13.2274 5.98242 13.1226 5.85223 13.1226 5.62855Z" fill="#939CA1"/>
</g>
<g id="g15958">
<path id="path15960" d="M14.6626 9.82542C14.6626 9.75756 14.6693 9.67584 14.6953 9.59413C14.7481 9.41754 14.859 9.24718 15.1348 9.24718C15.2597 9.24718 15.3966 9.28111 15.5082 9.36352C15.607 9.43139 15.6464 9.51934 15.6464 9.60798C15.6464 9.90021 15.1742 10.2402 14.9378 10.2402C14.7675 10.2402 14.6626 10.0699 14.6626 9.82542Z" fill="#939CA1"/>
</g>
<g id="g15962">
<path id="path15964" d="M12.0815 18.4043C11.1974 18.4043 10.8037 17.9694 10.8037 17.4189C10.8037 16.4528 12.4352 15.5082 13.9025 14.9231L14.2828 15.4334C13.3787 15.8067 11.5577 16.61 11.5577 17.3032C11.5577 17.5477 11.6952 17.7249 12.245 17.7249C13.2018 17.7249 14.2307 17.2416 15.1803 16.7589C15.2523 16.725 15.3377 16.691 15.4165 16.691C15.5406 16.691 15.6193 16.7319 15.7107 16.8676L15.8682 17.092C14.7612 17.7249 13.3787 18.4043 12.0815 18.4043Z" fill="#939CA1"/>
</g>
<g id="g15966">
<path id="path15968" d="M14.5184 18.664C13.6538 19.1668 12.7565 19.5006 11.9639 19.5006C11.0792 19.5006 10.2933 19.1058 9.63814 18.0788C9.36327 17.6439 9.14711 17.1003 8.88491 16.6177C8.57068 16.0463 8.22976 15.7403 7.63398 15.7403C7.09024 15.7403 6.55918 15.9715 5.99609 16.2229L6.02211 16.3524C6.06815 16.5629 6.14687 16.7125 6.33635 16.7125C6.42174 16.7125 6.50714 16.6724 6.55318 16.6585C6.86741 16.556 7.09625 16.4674 7.41782 16.4674C7.90885 16.4674 8.14436 16.7672 8.47861 17.5013L8.60337 17.7734C8.26245 17.896 7.46319 17.957 6.86741 17.957H6.58587L6.6319 18.2492C6.65125 18.3718 6.69728 18.4736 6.79536 18.5214C6.91278 18.5823 7.08357 18.5892 7.37846 18.5892C8.12501 18.5892 8.66875 18.4943 8.98298 18.4119C9.78892 19.6571 10.8957 20.1328 11.9639 20.1328C12.8739 20.1328 13.7979 19.7859 14.6826 19.2831L14.5184 18.664Z" fill="#939CA1"/>
</g>
<g id="g15970">
<path id="path15972" d="M15.4087 18.9708L15.252 18.3448C16.601 17.5907 17.8325 16.9854 19.798 16.7881C19.8374 17.5699 19.7847 18.556 20.3417 18.556C20.8521 18.556 21.9656 17.189 23.2499 15.4758C23.368 15.5914 23.5575 15.714 23.7283 15.8497L23.4007 16.2915C22.1491 17.9646 21.0816 19.3926 20.2036 19.3926C19.385 19.3926 19.0768 18.3926 19.0641 17.6447C17.8132 17.7742 16.6336 18.2091 15.4087 18.9708Z" fill="#939CA1"/>
</g>
<g id="g15974">
<path id="path15976" d="M32.7416 5.32387C32.2305 5.32387 32.0864 5.03094 32.0864 4.61682C32.0864 3.7602 32.6041 2.52961 32.9317 1.8288H32.1385C31.7262 2.65842 30.1016 5.31695 29.2236 6.41872L29.728 6.98242C30.1997 6.43881 30.7174 5.51431 31.2805 4.60297H31.3852C31.3852 4.65076 31.3792 4.70477 31.3792 4.75255C31.3792 5.52124 31.7589 6.09186 32.6956 6.09186C33.272 6.09186 34.176 5.7927 35.028 5.49354C35.7351 5.24216 36.3836 4.98385 36.7045 4.88898V4.07321C36.3376 4.18816 35.591 4.48733 34.8178 4.76641C34.0059 5.05864 33.2066 5.32387 32.7416 5.32387Z" fill="#939CA1"/>
</g>
<g id="g15978">
<path id="path15980" d="M34.4905 7.79005C35.2764 7.4438 36.6848 6.85863 37.4974 6.55255V5.72293C35.8662 6.34895 33.0034 7.57953 31.0513 8.68131C31.104 8.74848 31.4449 9.24501 31.4836 9.30664C32.3089 8.95277 33.0494 8.72147 33.7173 8.72147C34.6546 8.72147 35.4205 8.72147 36.7048 8.40846V7.78313C35.9843 7.91955 35.2177 8.08229 34.72 8.08229C34.4251 8.08229 34.3397 8.04143 34.3397 7.93964C34.3397 7.87869 34.3791 7.83784 34.4905 7.79005Z" fill="#939CA1"/>
</g>
</g>
</g>
<g id="g15982">
<path id="path15984" d="M17.7081 11.6142L17.3931 12.2402H20.742L20.4931 11.6142H17.7081Z" fill="#939CA1"/>
</g>
<g id="g15986">
<g id="g15988">
<g id="g15994">
<path id="path15996" d="M5.64905 15.3457C6.00265 15.3457 6.29086 15.2231 6.5664 15.1082C6.82793 14.9987 7.09012 14.89 7.44372 14.89C8.28234 14.89 9.31711 15.3117 10.2278 15.7127C10.2805 15.7335 10.3392 15.7466 10.3979 15.7466C10.5427 15.7466 10.6541 15.6788 10.7255 15.5361L10.8436 15.3118C9.84151 14.7065 8.24298 14.0604 7.41103 14.0604C7.03141 14.0604 6.75588 14.1629 6.49435 14.2709C6.19946 14.3942 5.94394 14.523 5.67507 14.523C5.01391 14.523 3.31732 13.8429 3.31732 13.1837C3.31732 12.4088 6.01599 12.1096 6.31088 12.1096L6.57908 11.4767C4.62095 11.4767 2.28855 12.1906 2.28855 13.1359C2.28855 13.4081 2.43933 13.5438 2.43933 13.7952C2.43933 14.1352 2.28855 14.3665 2.28855 14.7474C2.28855 14.9987 2.43266 15.3187 2.60278 15.5978C2.78625 15.89 3.00241 16.0797 3.00241 16.3249C3.00241 16.5084 2.88499 16.7258 2.88499 17.1545C2.88499 18.0721 3.38937 18.6302 4.37143 19.7244L4.56825 19.9418C3.75631 20.2687 2.24252 20.9487 1.88892 21.1046C0.664008 21.635 0.356445 22.2811 0.356445 23.3012C0.356445 23.6952 0.356445 24.144 0.382465 24.5449H0.617973C1.10967 24.5449 1.16838 24.2395 1.16838 23.9473C1.16838 23.7499 1.16171 23.5256 1.16171 23.2804C1.16838 22.7167 1.1884 22.2133 2.06572 21.8054C2.41998 21.6419 4.15527 20.9079 5.44623 20.3366C5.82585 20.1662 6.17945 20.0236 6.57241 20.0236C7.0114 20.0236 7.51577 20.2209 8.14491 20.6087C8.6753 20.9349 9.23239 21.3767 9.67138 21.8864L10.2278 21.4446C9.74944 20.8601 9.08828 20.3366 8.42645 19.9287C7.76463 19.5208 7.17552 19.2826 6.67782 19.2826C6.46166 19.2826 6.28486 19.3234 6.13408 19.3643C5.95728 19.4121 5.79316 19.4661 5.58367 19.4661C5.34149 19.4661 5.138 19.4051 4.84312 19.0513C4.7317 18.9225 4.02451 18.0859 3.87373 17.8415C3.80168 17.7258 3.67091 17.4945 3.67091 17.2224C3.67091 17.1067 3.69026 16.971 3.75631 16.8484C4.36476 17.338 5.11866 17.6372 6.03534 17.7528L5.91125 17.1067C4.59427 16.7466 3.19256 15.543 3.19256 14.7681C3.19256 14.6047 3.23192 14.4891 3.2913 14.3464C3.80168 14.836 5.00057 15.3457 5.64905 15.3457Z" fill="#939CA1"/>
</g>
<g id="g15998">
<path id="path16000" d="M15.0752 15.4694C15.9005 14.8641 16.7518 14.7963 17.4396 14.7963C17.8526 14.7963 18.337 14.8572 18.848 14.9251C19.261 14.9798 19.6339 15.0206 20.0796 15.0206C20.9769 15.0206 21.8809 14.6806 22.2739 14.5033C22.3853 14.6467 22.5754 14.8371 22.7262 14.9729C22.5361 15.0954 21.3312 15.7748 20.0996 15.7748C19.5559 15.7748 19.0381 15.7076 18.5925 15.646C18.1995 15.592 17.7739 15.5442 17.3609 15.5442C16.9092 15.5442 15.9985 15.6799 15.4355 15.959L15.0752 15.4694Z" fill="#939CA1"/>
</g>
<g id="g16002">
<path id="path16004" d="M27.2394 17.896C26.2566 20.0448 24.7629 21.6085 23.2304 22.5129C22.5032 22.9409 21.848 23.2199 20.4336 23.2199H17.374C16.2805 23.2199 15.5927 23.3695 15.0556 23.5122C14.4785 23.6687 14.1123 23.8245 13.5292 23.8245C12.6645 23.8245 11.8653 23.3827 11.479 22.9616L12.1995 22.3702L11.8392 21.873C11.6297 22.0302 9.06851 23.9949 8.53077 24.4367L8.49808 24.4166C8.51143 24.2809 8.51143 24.1583 8.51143 24.0357C8.51143 22.5399 7.84293 22.1791 6.82817 21.7581L6.14033 22.1791C7.53537 22.6625 7.88229 23.0496 7.88229 24.1306C7.88229 24.9879 7.58741 25.3272 7.16176 25.5862C6.72276 25.8515 6.17902 25.9733 5.70133 25.9733C5.49785 25.9733 5.40645 26.0142 5.3344 26.089C5.25567 26.1707 5.21631 26.2933 5.21631 26.463V26.7012H5.38043C6.25775 26.7012 7.07035 26.5585 7.96102 25.8307L10.8632 23.4783C11.2755 23.9679 12.3176 24.6479 13.5485 24.6479C14.243 24.6479 14.6887 24.4706 15.3305 24.3009C15.8282 24.1714 16.3132 24.0558 17.374 24.0558H20.4463C22.0188 24.0558 22.7787 23.7158 23.6167 23.2269C25.438 22.166 26.9905 20.371 27.8685 18.3101C27.639 18.1612 27.4228 18.0248 27.2394 17.896Z" fill="#939CA1"/>
</g>
<g id="g16006">
<path id="path16008" d="M22.3068 20.4535C23.0994 19.1343 23.8066 17.9646 25.5426 17.0131C25.3591 16.8975 25.0976 16.7209 24.9595 16.6253C24.285 16.9314 23.6172 17.5429 23.0474 18.162C21.7371 19.5761 21.8545 20.3919 20.4728 20.9431C20.1252 21.0788 19.6996 21.2284 19.1558 21.3579C18.8349 20.3309 18.0297 19.3109 17.1777 19.3109C16.5879 19.3109 15.9068 19.6301 15.1208 19.9909C14.1975 20.4126 13.3522 20.8953 13.084 21.0788L13.4443 21.5823C13.7191 21.4251 14.5117 21.0172 15.3043 20.664C15.9921 20.3579 16.6146 20.1065 17.0336 20.1065C17.7081 20.1065 18.1471 20.9022 18.3899 21.5407C17.5053 21.7589 16.0509 21.8129 15.6125 21.8129C15.409 21.8129 15.337 21.8468 15.2649 21.9084C15.1996 21.9694 15.1469 22.0781 15.1142 22.2277L15.0621 22.459H15.5331C17.9836 22.459 20.296 22.058 21.7825 21.1197C21.9926 21.1813 22.1761 21.2215 22.4116 21.2215C23.2629 21.2215 24.1409 20.7388 24.6913 20.297C24.8874 20.1405 24.9335 19.9971 24.9335 19.8413C24.9335 19.7665 24.9268 19.6987 24.9201 19.6301L24.8941 19.3656C24.1082 20.011 23.453 20.4943 22.6411 20.4943C22.497 20.4943 22.3922 20.4805 22.3068 20.4535Z" fill="#939CA1"/>
</g>
</g>
</g>
</g>
</g>
<defs>
<clipPath id="clip0_768_30408">
<rect width="95.1933" height="28.4" fill="white" transform="translate(0.0385742 0.685547)"/>
</clipPath>
</defs>
</svg>
