<svg width="83" height="29" viewBox="0 0 83 29" fill="none" xmlns="http://www.w3.org/2000/svg">
<path d="M25.3859 0.279297V10.2324H23.342V0.279297H25.3859ZM28.4484 0.279297V1.88574H20.3273V0.279297H28.4484ZM36.2961 8.63281V10.2324H30.9982V8.63281H36.2961ZM31.6682 0.279297V10.2324H29.6174V0.279297H31.6682ZM35.6057 4.33301V5.8916H30.9982V4.33301H35.6057ZM36.2893 0.279297V1.88574H30.9982V0.279297H36.2893ZM41.3684 6.68457H38.8322V5.08496H41.3684C41.7603 5.08496 42.0793 5.02116 42.3254 4.89355C42.5715 4.76139 42.7515 4.5791 42.8654 4.34668C42.9794 4.11426 43.0363 3.85221 43.0363 3.56055C43.0363 3.26432 42.9794 2.98861 42.8654 2.7334C42.7515 2.47819 42.5715 2.27311 42.3254 2.11816C42.0793 1.96322 41.7603 1.88574 41.3684 1.88574H39.5432V10.2324H37.4924V0.279297H41.3684C42.1477 0.279297 42.8153 0.420573 43.3713 0.703125C43.9318 0.98112 44.3602 1.36621 44.6564 1.8584C44.9527 2.35059 45.1008 2.91341 45.1008 3.54688C45.1008 4.18945 44.9527 4.74544 44.6564 5.21484C44.3602 5.68424 43.9318 6.04655 43.3713 6.30176C42.8153 6.55697 42.1477 6.68457 41.3684 6.68457ZM50.3918 6.68457H47.8557V5.08496H50.3918C50.7837 5.08496 51.1027 5.02116 51.3488 4.89355C51.5949 4.76139 51.7749 4.5791 51.8889 4.34668C52.0028 4.11426 52.0598 3.85221 52.0598 3.56055C52.0598 3.26432 52.0028 2.98861 51.8889 2.7334C51.7749 2.47819 51.5949 2.27311 51.3488 2.11816C51.1027 1.96322 50.7837 1.88574 50.3918 1.88574H48.5666V10.2324H46.5158V0.279297H50.3918C51.1711 0.279297 51.8387 0.420573 52.3947 0.703125C52.9553 0.98112 53.3837 1.36621 53.6799 1.8584C53.9761 2.35059 54.1242 2.91341 54.1242 3.54688C54.1242 4.18945 53.9761 4.74544 53.6799 5.21484C53.3837 5.68424 52.9553 6.04655 52.3947 6.30176C51.8387 6.55697 51.1711 6.68457 50.3918 6.68457ZM58.4514 1.98145L55.7443 10.2324H53.5637L57.2619 0.279297H58.6496L58.4514 1.98145ZM60.7004 10.2324L57.9865 1.98145L57.7678 0.279297H59.1691L62.8879 10.2324H60.7004ZM60.5773 6.52734V8.13379H55.3205V6.52734H60.5773Z" fill="#EE904C"/>
<path d="M7.48945 18.2793V19.8857H2.54023V18.2793H7.48945ZM8.95234 18.2793V28.2324H6.90156V18.2793H8.95234ZM2.28047 18.2793H4.32441L4.07148 23.2764C4.03503 24.0238 3.96439 24.6732 3.85957 25.2246C3.75931 25.776 3.62259 26.2454 3.44941 26.6328C3.27624 27.0156 3.06204 27.3255 2.80684 27.5625C2.55618 27.7949 2.25996 27.9658 1.91816 28.0752C1.57637 28.18 1.18672 28.2324 0.749218 28.2324H0.243359V26.6328L0.503124 26.6123C0.726432 26.5895 0.922395 26.5303 1.09101 26.4346C1.25963 26.3389 1.40319 26.1953 1.52168 26.0039C1.64473 25.8125 1.74499 25.5687 1.82246 25.2725C1.90449 24.9717 1.96829 24.6048 2.01387 24.1719C2.064 23.7389 2.09818 23.2331 2.11641 22.6543L2.28047 18.2793ZM18.9123 23.0234V23.4951C18.9123 24.2516 18.8098 24.9307 18.6047 25.5322C18.3996 26.1338 18.1102 26.6465 17.7365 27.0703C17.3628 27.4896 16.9162 27.8109 16.3967 28.0342C15.8817 28.2575 15.3098 28.3691 14.6809 28.3691C14.0565 28.3691 13.4846 28.2575 12.965 28.0342C12.4501 27.8109 12.0034 27.4896 11.6252 27.0703C11.2469 26.6465 10.953 26.1338 10.7434 25.5322C10.5383 24.9307 10.4357 24.2516 10.4357 23.4951V23.0234C10.4357 22.2624 10.5383 21.5833 10.7434 20.9863C10.9484 20.3848 11.2378 19.8721 11.6115 19.4482C11.9898 19.0244 12.4364 18.7008 12.9514 18.4775C13.4709 18.2542 14.0428 18.1426 14.6672 18.1426C15.2961 18.1426 15.868 18.2542 16.383 18.4775C16.9025 18.7008 17.3492 19.0244 17.7229 19.4482C18.1011 19.8721 18.3928 20.3848 18.5979 20.9863C18.8075 21.5833 18.9123 22.2624 18.9123 23.0234ZM16.841 23.4951V23.0098C16.841 22.4811 16.7932 22.0163 16.6975 21.6152C16.6018 21.2142 16.4605 20.877 16.2736 20.6035C16.0868 20.3301 15.8589 20.125 15.59 19.9883C15.3212 19.847 15.0135 19.7764 14.6672 19.7764C14.3208 19.7764 14.0132 19.847 13.7443 19.9883C13.48 20.125 13.2544 20.3301 13.0676 20.6035C12.8853 20.877 12.7463 21.2142 12.6506 21.6152C12.5549 22.0163 12.507 22.4811 12.507 23.0098V23.4951C12.507 24.0192 12.5549 24.484 12.6506 24.8896C12.7463 25.2907 12.8876 25.6302 13.0744 25.9082C13.2613 26.1816 13.4891 26.389 13.758 26.5303C14.0269 26.6715 14.3345 26.7422 14.6809 26.7422C15.0272 26.7422 15.3348 26.6715 15.6037 26.5303C15.8726 26.389 16.0982 26.1816 16.2805 25.9082C16.4628 25.6302 16.6018 25.2907 16.6975 24.8896C16.7932 24.484 16.841 24.0192 16.841 23.4951ZM26.924 18.2793V19.8857H22.4396V28.2324H20.3957V18.2793H26.924ZM30.1711 25.0059L34.1701 18.2793H36.2209V28.2324H34.1701V21.5059L30.1711 28.2324H28.1203V18.2793H30.1711V25.0059ZM43.7678 24.9307H45.8117C45.7707 25.6006 45.5861 26.1953 45.258 26.7148C44.9344 27.2344 44.481 27.64 43.8977 27.9316C43.3189 28.2233 42.6216 28.3691 41.8059 28.3691C41.1678 28.3691 40.5959 28.2598 40.09 28.041C39.5842 27.8177 39.1512 27.4987 38.7912 27.084C38.4357 26.6693 38.1646 26.168 37.9777 25.5801C37.7909 24.9922 37.6975 24.3337 37.6975 23.6045V22.9141C37.6975 22.1849 37.7932 21.5264 37.9846 20.9385C38.1805 20.346 38.4585 19.8424 38.8186 19.4277C39.1831 19.013 39.6184 18.694 40.1242 18.4707C40.6301 18.2474 41.1952 18.1357 41.8195 18.1357C42.649 18.1357 43.3485 18.2861 43.9182 18.5869C44.4924 18.8877 44.9367 19.3024 45.2512 19.8311C45.5702 20.3597 45.7616 20.9613 45.8254 21.6357H43.7746C43.7518 21.2347 43.6721 20.8952 43.5354 20.6172C43.3986 20.3346 43.1913 20.1227 42.9133 19.9814C42.6398 19.8356 42.2753 19.7627 41.8195 19.7627C41.4777 19.7627 41.1792 19.8265 40.924 19.9541C40.6688 20.0817 40.4546 20.2754 40.2814 20.5352C40.1083 20.7949 39.9784 21.123 39.8918 21.5195C39.8098 21.9115 39.7687 22.3717 39.7687 22.9004V23.6045C39.7687 24.1195 39.8075 24.5729 39.885 24.9648C39.9624 25.3522 40.0809 25.6803 40.2404 25.9492C40.4045 26.2135 40.6141 26.4141 40.8693 26.5508C41.1291 26.6829 41.4413 26.749 41.8059 26.749C42.2342 26.749 42.5874 26.6807 42.8654 26.5439C43.1434 26.4072 43.3553 26.2044 43.5012 25.9355C43.6516 25.6667 43.7404 25.3317 43.7678 24.9307ZM51.4035 18.2793V28.2324H49.3596V18.2793H51.4035ZM54.466 18.2793V19.8857H46.3449V18.2793H54.466ZM57.6105 25.0059L61.6096 18.2793H63.6604V28.2324H61.6096V21.5059L57.6105 28.2324H55.5598V18.2793H57.6105V25.0059ZM67.4953 18.2793V28.2324H65.4445V18.2793H67.4953ZM73.3605 18.2793L69.5461 24.124H67.0373L66.7775 22.2988H68.4523L70.8723 18.2793H73.3605ZM71.2482 28.2324L68.4592 23.7822L69.8811 22.3193L73.6818 28.2324H71.2482ZM78.5354 19.9814L75.8283 28.2324H73.6477L77.3459 18.2793H78.7336L78.5354 19.9814ZM80.7844 28.2324L78.0705 19.9814L77.8518 18.2793H79.2531L82.9719 28.2324H80.7844ZM80.6613 24.5273V26.1338H75.4045V24.5273H80.6613Z" fill="#A71C35"/>
</svg>
