<svg width="56" height="40" viewBox="0 0 56 40" fill="none" xmlns="http://www.w3.org/2000/svg">
<g clip-path="url(#clip0_768_30519)">
<path opacity="0.5" d="M34.4493 30.0858C35.1959 25.4379 38.6005 8.28729 40.2093 0.292969H32.5025L25.7291 11.8301L26.6357 0.292969H19.889L14.1822 11.8301L15.4889 0.292969H6.82204L0.875244 33.0872H9.06207L16.2089 18.9617L14.1822 33.0872H21.4357L28.5825 18.9617C25.8358 29.3148 26.4912 33.2128 28.5825 36.3087C30.7958 39.5854 35.3293 40.4369 39.7827 39.5854C46.8495 38.2341 50.7617 33.6379 53.9963 27.9656C56.7756 23.092 55.8631 18.3009 53.7563 16.1256C51.9963 14.3082 49.6976 13.5814 45.9428 14.3082C42.1881 15.0352 40.4672 18.209 40.076 19.7051C40.1827 19.7969 40.8707 20.1291 42.7694 20.724L42.7914 20.6755C43.5812 18.9354 44.2228 17.5221 45.5962 17.3096C46.9168 17.1052 48.8975 17.673 49.0895 20.4486C49.3295 23.9179 46.7318 30.4273 42.7694 33.9407C40.9276 35.5738 39.8537 36.1319 38.7373 36.2941C38.1354 36.3816 36.9848 36.3869 36.316 36.116C34.7137 35.467 33.7026 34.7338 34.4493 30.0858Z" fill="#EE904C"/>
<path d="M6.04963 14.4285L6.03012 11.2068L4.54769 13.7923H3.5334L2.05096 11.3179V14.4285H-0.0458984V7.35885H1.84616L4.0698 11.126L6.23493 7.35885H8.12698L8.14648 14.4285H6.04963ZM20.5785 14.5901C20.0129 14.5901 19.4602 14.5261 18.9206 14.3983C18.3874 14.2636 17.9486 14.0851 17.604 13.8629L18.3451 12.1258C18.6702 12.3211 19.0343 12.4794 19.4374 12.6005C19.8405 12.715 20.2275 12.7722 20.5981 12.7722C20.9167 12.7722 21.1442 12.7419 21.2807 12.6813C21.4173 12.614 21.4856 12.5164 21.4856 12.3884C21.4856 12.2403 21.3946 12.1292 21.2125 12.0551C21.037 11.9811 20.7443 11.9003 20.3347 11.8128C19.8081 11.6983 19.3692 11.5771 19.0181 11.4491C18.667 11.3145 18.3614 11.0991 18.1013 10.8028C17.8413 10.4999 17.7112 10.0925 17.7112 9.58076C17.7112 9.13638 17.8314 8.73239 18.072 8.3688C18.3126 8.00523 18.6702 7.71907 19.1449 7.51035C19.626 7.30163 20.2079 7.19727 20.8906 7.19727C21.3588 7.19727 21.8171 7.25113 22.2658 7.35885C22.7209 7.45985 23.1207 7.61134 23.4653 7.81333L22.773 9.54035C22.1032 9.19024 21.4693 9.01518 20.8712 9.01518C20.2794 9.01518 19.9836 9.16331 19.9836 9.45956C19.9836 9.60095 20.0714 9.70869 20.2469 9.78274C20.4225 9.85008 20.7118 9.92414 21.1149 10.0049C21.6351 10.1059 22.0739 10.2238 22.4315 10.3584C22.7892 10.4864 23.098 10.6984 23.3581 10.9947C23.6247 11.2909 23.758 11.6949 23.758 12.2067C23.758 12.651 23.6377 13.055 23.3971 13.4185C23.1565 13.7754 22.7957 14.0616 22.3145 14.2771C21.8399 14.4858 21.2613 14.5901 20.5785 14.5901ZM26.8053 9.20707H24.806V7.35885H31.1063V9.20707H29.107V14.4285H26.8053V9.20707ZM36.5462 11.8633V14.4285H34.2444V11.8329L31.6697 7.35885H34.0982L35.4928 9.80295L36.8972 7.35885H39.1209L36.5462 11.8633ZM40.3884 7.35885H42.69V12.5803H45.7719V14.4285H40.3884V7.35885ZM53.0592 12.6308V14.4285H47.383V7.35885H52.9324V9.15657H49.6456V9.98474H52.5325V11.7017H49.6456V12.6308H53.0592Z" fill="white"/>
<path d="M12.8083 12.2222C13.4816 12.2222 14.0274 11.6569 14.0274 10.9597C14.0274 10.2625 13.4816 9.69727 12.8083 9.69727C12.135 9.69727 11.5892 10.2625 11.5892 10.9597C11.5892 11.6569 12.135 12.2222 12.8083 12.2222Z" fill="#EE904C"/>
</g>
<defs>
<clipPath id="clip0_768_30519">
<rect width="55.8108" height="39.6279" fill="white" transform="translate(0.0078125 0.279297)"/>
</clipPath>
</defs>
</svg>
