<svg width="38" height="47" viewBox="0 0 38 47" fill="none" xmlns="http://www.w3.org/2000/svg">
<g id="Moscow_Transport 1" clip-path="url(#clip0_768_30461)">
<g id="g3017">
<g id="Page-1">
<g id="mostrans_vert_sign">
<path id="Shape" d="M18.9648 11.959C14.7033 11.959 11.2495 15.5353 11.2495 19.9192C11.2495 24.3319 14.7033 27.9082 18.9648 27.9082C23.1985 27.9082 26.6802 24.3319 26.6802 19.9192C26.6802 15.5353 23.1985 11.959 18.9648 11.959ZM18.9648 24.7933C16.3745 24.7933 14.2577 22.6014 14.2577 19.9192C14.2577 17.2369 16.3745 15.0738 18.9648 15.0738C21.5552 15.0738 23.672 17.2369 23.672 19.9192C23.672 22.6014 21.5552 24.7933 18.9648 24.7933Z" fill="#D9232E"/>
<g id="g3014">
<path id="path13" d="M28.2118 29.5228L28.2396 29.494C30.6072 27.0425 32.0555 23.668 32.0555 19.9187C32.0555 12.4488 26.1785 6.36328 18.9645 6.36328C11.7506 6.36328 5.87354 12.4488 5.87354 19.9187C5.87354 23.668 7.34975 27.0713 9.68942 29.494C9.96795 29.7824 10.3579 29.9554 10.7757 29.9554C11.6113 29.9554 12.2798 29.2633 12.2798 28.398C12.2798 27.9654 12.0848 27.5616 11.8063 27.2732C9.99581 25.3985 8.88168 22.8028 8.88168 19.9187C8.88168 14.1504 13.3939 9.47814 18.9645 9.47814C24.5352 9.47814 29.0474 14.1504 29.0474 19.9187C29.0474 22.8028 27.9333 25.4274 26.0949 27.302L13.0039 40.8574L15.1486 43.0494L28.2118 29.5228Z" fill="#D9232E"/>
</g>
<g id="g3011">
<path id="path15" d="M37.4592 19.9182C37.4592 9.36228 29.1868 0.767578 18.9647 0.767578C8.74261 0.767578 0.470215 9.36228 0.470215 19.9182C0.470215 25.1961 2.53135 30.0126 5.87373 33.4447C6.15226 33.7332 6.51436 33.9062 6.96001 33.9062C7.76775 33.9062 8.46408 33.214 8.46408 32.3488C8.46408 31.9162 8.26911 31.5124 7.99057 31.224C5.20526 28.3398 3.47836 24.3309 3.47836 19.9182C3.47836 11.0928 10.4138 3.88244 18.9647 3.88244C27.5157 3.88244 34.4511 11.0928 34.4511 19.9182C34.4511 24.3597 32.7242 28.3687 29.911 31.2528L16.82 44.8082L18.9647 47.0001L32.0557 33.4447C35.3981 29.9838 37.4592 25.1961 37.4592 19.9182Z" fill="#D9232E"/>
</g>
</g>
</g>
<g id="Page-1-1">
<g id="mostrans_vert_text">
<path id="Shape-7" d="M1.76449 45.0059L0.289277 42.8108L0.529437 42.5613L2.15992 43.2636L1.49714 41.5557L1.7373 41.3062L3.8341 42.8554L3.48799 43.2151L2.22545 42.2487L2.87378 43.9125L2.78196 44.0079L1.20846 43.3351L2.1106 44.6463L1.76449 45.0059Z" fill="#D9232E"/>
<path id="path13-4" d="M3.43988 40.8091C3.53171 40.7137 3.63076 40.6404 3.73703 40.5891C3.8433 40.5379 3.94965 40.5013 4.07037 40.4942C4.18403 40.4945 4.2907 40.5168 4.40459 40.5612C4.51849 40.6056 4.61826 40.6646 4.71112 40.7604C4.80398 40.8563 4.86851 40.9667 4.91177 41.0845C4.94789 41.1949 4.97694 41.3127 4.96338 41.4303C4.96401 41.548 4.9291 41.6583 4.87997 41.7685C4.83085 41.8787 4.76037 41.9815 4.66854 42.0769C4.57672 42.1724 4.47767 42.2457 4.3714 42.2969C4.26513 42.3482 4.15877 42.3847 4.04512 42.3845C3.93861 42.3916 3.81773 42.3693 3.71098 42.3323C3.59708 42.2879 3.49723 42.2141 3.40437 42.1183C3.31151 42.0225 3.24706 41.9267 3.2038 41.8089C3.16054 41.6911 3.14569 41.5734 3.14505 41.4557C3.14441 41.3381 3.17933 41.2278 3.22846 41.1176C3.27758 41.0074 3.34806 40.9045 3.43988 40.8091ZM4.37567 41.7747C4.46749 41.6793 4.51662 41.5691 4.5159 41.4367C4.51526 41.319 4.472 41.2012 4.37914 41.1054C4.28627 41.0096 4.17952 40.9726 4.05872 40.965C3.93086 40.9647 3.82459 41.0159 3.72562 41.104C3.63379 41.1994 3.59181 41.317 3.59959 41.442C3.60031 41.5744 3.64349 41.6775 3.73636 41.7733C3.82922 41.8691 3.93605 41.9209 4.06391 41.9211C4.17757 41.9214 4.29098 41.8775 4.37567 41.7747Z" fill="#D9232E"/>
<path id="path15-0" d="M5.27705 39.0488L5.59136 39.3731C5.52747 39.3803 5.47072 39.3949 5.40691 39.4168C5.34318 39.4535 5.28651 39.4828 5.23 39.5415C5.13111 39.6442 5.08913 39.7618 5.09692 39.8869C5.09763 40.0193 5.14788 40.115 5.24074 40.2108C5.3336 40.3066 5.44043 40.3584 5.56829 40.3586C5.68901 40.3516 5.79528 40.3003 5.89417 40.1975C5.93655 40.1535 5.97179 40.1021 6.00695 40.036C6.03504 39.9772 6.04178 39.911 6.04138 39.8375L6.36283 40.1692C6.34188 40.2353 6.30673 40.3014 6.27157 40.3675C6.23641 40.4337 6.19411 40.4924 6.14467 40.5438C6.05276 40.6245 5.95371 40.6978 5.84744 40.7491C5.74117 40.8003 5.63474 40.8222 5.52823 40.8293C5.42172 40.8364 5.31505 40.8141 5.20115 40.7697C5.10147 40.7254 5.00162 40.6516 4.9159 40.5631C4.8159 40.46 4.73716 40.3495 4.6939 40.2317C4.65064 40.1139 4.6358 39.9962 4.64222 39.8712C4.64872 39.7608 4.67658 39.6579 4.71864 39.5551C4.76078 39.4669 4.82419 39.3714 4.90189 39.2907C4.9584 39.232 5.02205 39.1806 5.08578 39.144C5.14237 39.1 5.21324 39.0707 5.27705 39.0488Z" fill="#D9232E"/>
<path id="path17" d="M5.53125 38.709L5.84911 38.3787L6.29914 38.8431L6.27998 37.931L6.67554 37.52L6.67423 38.5865L7.85388 38.6773L7.44419 39.103L6.57717 39.0276L6.57773 39.1305L6.99919 39.5654L6.68133 39.8957L5.53125 38.709Z" fill="#D9232E"/>
<path id="path19" d="M7.31781 36.7798C7.40964 36.6844 7.50869 36.6111 7.61496 36.5598C7.72123 36.5086 7.82758 36.472 7.9483 36.4649C8.06196 36.4652 8.16863 36.4875 8.28252 36.5319C8.39642 36.5763 8.49619 36.6353 8.58905 36.7311C8.68191 36.827 8.74644 36.9374 8.7897 37.0552C8.82582 37.1656 8.85487 37.2834 8.84837 37.3937C8.84194 37.5187 8.80703 37.629 8.7579 37.7392C8.70877 37.8494 8.6383 37.9522 8.54647 38.0476C8.45465 38.1431 8.3556 38.2164 8.24933 38.2676C8.14306 38.3189 8.04377 38.3481 7.92305 38.3552C7.81654 38.3623 7.69566 38.34 7.58891 38.303C7.47501 38.2586 7.37516 38.1848 7.2823 38.089C7.18944 37.9932 7.12499 37.8974 7.08173 37.7796C7.03847 37.6618 7.02362 37.5441 7.02298 37.4264C7.02941 37.3014 7.05726 37.1985 7.10639 37.0883C7.15551 36.9781 7.22599 36.8752 7.31781 36.7798ZM8.2536 37.7454C8.34542 37.65 8.39455 37.5398 8.39383 37.4074C8.39319 37.2897 8.34993 37.1719 8.25706 37.0761C8.1642 36.9803 8.05745 36.9433 7.93665 36.9357C7.80879 36.9354 7.70252 36.9866 7.60355 37.0747C7.51172 37.1701 7.46974 37.2877 7.47752 37.4127C7.47824 37.5451 7.52142 37.6482 7.61429 37.744C7.70715 37.8398 7.81398 37.8916 7.94184 37.8918C8.0555 37.8921 8.16891 37.8482 8.2536 37.7454Z" fill="#D9232E"/>
<path id="path21" d="M8.23633 35.8984L8.73783 35.3773C8.80847 35.3039 8.86506 35.2599 8.92172 35.2306C8.97125 35.194 9.028 35.1794 9.08474 35.1648C9.14157 35.1649 9.1984 35.165 9.26245 35.1872C9.31935 35.2021 9.36928 35.239 9.41928 35.2906C9.46929 35.3422 9.49802 35.4011 9.51262 35.4747C9.52723 35.5482 9.52763 35.6218 9.49962 35.6953C9.53501 35.6733 9.56335 35.6586 9.60589 35.644C9.64843 35.6294 9.6839 35.6221 9.71938 35.6149C9.77621 35.615 9.83312 35.6298 9.88296 35.652C9.9328 35.6742 9.97558 35.7037 10.0184 35.7479C10.0756 35.8069 10.1185 35.8658 10.1402 35.9321C10.1619 35.9983 10.1623 36.0719 10.1555 36.138C10.1558 36.1969 10.1277 36.2557 10.0997 36.3144C10.0716 36.3732 10.0221 36.4246 9.97267 36.476L9.38641 37.0852L8.23633 35.8984ZM9.01136 36.0399L9.15969 35.8858L9.20913 35.8344C9.21612 35.8123 9.2231 35.7903 9.22302 35.7756C9.23001 35.7535 9.23699 35.7315 9.22977 35.7094C9.22254 35.6873 9.20826 35.6726 9.18683 35.6505C9.17254 35.6357 9.15825 35.621 9.1369 35.6136C9.11555 35.6062 9.0942 35.5988 9.07293 35.6061C9.05873 35.606 9.03746 35.6134 9.02333 35.628C9.01626 35.6354 8.98793 35.65 8.95968 35.6794L8.81134 35.8335L9.01136 36.0399ZM9.45424 36.4969L9.60964 36.3354C9.63789 36.3061 9.65194 36.2767 9.67313 36.2547C9.68012 36.2326 9.69416 36.2032 9.70115 36.1812C9.69392 36.1591 9.70091 36.137 9.68654 36.1076C9.67932 36.0855 9.65789 36.0634 9.6436 36.0486C9.62217 36.0265 9.60788 36.0118 9.58653 36.0044C9.56518 35.997 9.54391 36.0043 9.52256 35.9969C9.50129 36.0042 9.48002 36.0115 9.45883 36.0335C9.4305 36.0482 9.40931 36.0702 9.38097 36.0848L9.21851 36.2537L9.45424 36.4969Z" fill="#D9232E"/>
<path id="path23" d="M10.3276 33.7992L10.6419 34.1236C10.578 34.1308 10.5142 34.1527 10.4504 34.1746C10.3937 34.2039 10.33 34.2406 10.2805 34.2919C10.1746 34.402 10.1326 34.5196 10.1404 34.6447C10.1482 34.7697 10.1913 34.8728 10.2842 34.9686C10.3771 35.0645 10.491 35.1088 10.6118 35.1165C10.7325 35.1094 10.8387 35.0581 10.9376 34.9554C10.9871 34.904 11.0223 34.8526 11.0504 34.7938C11.0785 34.735 11.0923 34.6615 11.0919 34.5879L11.4134 34.9196C11.3853 34.9931 11.3572 35.0519 11.3221 35.118C11.2869 35.1841 11.2446 35.2429 11.1881 35.3016C11.0962 35.3823 10.9972 35.4556 10.8909 35.5069C10.7846 35.5581 10.6782 35.58 10.5788 35.5798C10.4722 35.5869 10.3585 35.5719 10.2517 35.5202C10.1449 35.4832 10.0451 35.4094 9.95936 35.321C9.85935 35.2178 9.78768 35.0999 9.74442 34.9821C9.70116 34.8644 9.67925 34.754 9.68568 34.629C9.69218 34.5187 9.72004 34.4157 9.7621 34.3129C9.8113 34.2174 9.86765 34.1292 9.94535 34.0485C10.0019 33.9898 10.0655 33.9384 10.1292 33.9018C10.1858 33.8578 10.2567 33.8285 10.3276 33.7992Z" fill="#D9232E"/>
<path id="path25" d="M10.5605 33.4844L10.8784 33.1541L11.3284 33.6185L11.3022 32.7137L11.7048 32.2953L11.7035 33.3619L12.8832 33.4527L12.4735 33.8784L11.6065 33.803L11.607 33.9059L12.0285 34.3408L11.7106 34.6711L10.5605 33.4844Z" fill="#D9232E"/>
<path id="path27" d="M11.8882 32.1055L12.2131 31.7678L12.9274 32.5049L12.7358 31.2247L13.0607 30.8871L14.2108 32.0738L13.8859 32.4114L13.1787 31.6817L13.3632 32.9546L13.0383 33.2922L11.8882 32.1055Z" fill="#D9232E"/>
<path id="path29" d="M13.3859 30.5487L13.7038 30.2184L14.4181 30.9555L14.2335 29.6679L14.5514 29.3376L15.7014 30.5243L15.3836 30.8546L14.6764 30.1249L14.8538 31.4051L14.536 31.7354L13.3859 30.5487ZM13.6197 29.1223L13.9245 29.0126C13.982 29.1304 13.9969 29.2629 13.9692 29.3952C13.9344 29.5201 13.864 29.6377 13.7651 29.7404C13.6662 29.8432 13.56 29.9091 13.4253 29.9456C13.3047 29.9821 13.1768 29.9671 13.0628 29.908L13.1747 29.5847C13.2318 29.6289 13.2957 29.6364 13.3738 29.6292C13.4448 29.6147 13.5014 29.5854 13.5579 29.5267C13.6145 29.468 13.6496 29.4018 13.6634 29.3283C13.663 29.2548 13.6556 29.1886 13.6197 29.1223Z" fill="#D9232E"/>
<path id="path31" d="M5.06835 43.8657L4.6728 44.2767L6.14431 45.7951L5.80527 46.1474L4.33375 44.629L3.9382 45.04L3.63818 44.7305L4.76833 43.5561L5.06835 43.8657Z" fill="#D9232E"/>
<path id="path33" d="M6.71496 44.8928L7.47929 45.6815L7.16144 46.0118L5.39704 44.1912L5.7149 43.8609L5.86491 44.0157C5.85014 43.9127 5.84958 43.8097 5.88458 43.7141C5.91244 43.6112 5.96878 43.5231 6.05354 43.435C6.216 43.2662 6.40735 43.1857 6.63474 43.2009C6.85499 43.2088 7.0473 43.3048 7.21873 43.4817C7.39732 43.666 7.49788 43.8722 7.50622 44.1002C7.51456 44.3282 7.43044 44.534 7.26798 44.7028C7.19029 44.7835 7.10537 44.8422 7.02028 44.8714C6.92814 44.908 6.82163 44.9151 6.71496 44.8928ZM6.24745 43.8253C6.15563 43.9207 6.11365 44.0383 6.11428 44.156C6.12207 44.281 6.16533 44.3988 6.26525 44.4873C6.35811 44.5831 6.46494 44.6348 6.5786 44.6351C6.70646 44.6354 6.80567 44.5914 6.89749 44.496C6.98932 44.4006 7.03844 44.2904 7.03066 44.1653C7.03708 44.0403 6.98676 43.9299 6.8939 43.8341C6.80103 43.7382 6.6942 43.6865 6.57349 43.6936C6.45269 43.686 6.33928 43.7299 6.24745 43.8253Z" fill="#D9232E"/>
<path id="path35" d="M7.92085 41.8791L7.77083 41.7243L8.08869 41.394L9.23878 42.5807L8.92092 42.911L8.77091 42.7562C8.79282 42.8666 8.79338 42.9696 8.75838 43.0651C8.73044 43.1533 8.68116 43.2341 8.60346 43.3148C8.43394 43.491 8.23552 43.5788 8.01527 43.571C7.78788 43.5558 7.58851 43.4671 7.41707 43.2902C7.23848 43.1059 7.14506 42.9071 7.13672 42.6791C7.12123 42.4437 7.19829 42.2452 7.36782 42.0691C7.44551 41.9883 7.5375 41.9223 7.62972 41.9005C7.72187 41.8639 7.82132 41.8641 7.92085 41.8791ZM7.73831 42.2758C7.63942 42.3786 7.60451 42.4888 7.59808 42.6139C7.60586 42.7389 7.65619 42.8494 7.74905 42.9452C7.84191 43.041 7.94875 43.0927 8.0624 43.093C8.19026 43.0933 8.28947 43.0494 8.38836 42.9466C8.48019 42.8512 8.52225 42.7483 8.51447 42.6233C8.52089 42.4982 8.47057 42.3878 8.3777 42.292C8.28484 42.1961 8.17801 42.1444 8.05721 42.1368C7.93649 42.1439 7.83014 42.1804 7.73831 42.2758Z" fill="#D9232E"/>
<path id="path37" d="M9.53534 42.2707L8.38525 41.084L8.71018 40.7464L9.11735 41.1665L9.56235 40.7041L9.15518 40.284L9.4801 39.9463L10.6302 41.1331L10.3053 41.4707L9.84094 40.9916L9.39594 41.454L9.86026 41.9331L9.53534 42.2707Z" fill="#D9232E"/>
<path id="path39" d="M10.674 38.7792L10.9883 39.1036C10.9244 39.1108 10.8535 39.1253 10.7968 39.1546C10.733 39.1766 10.6835 39.2132 10.627 39.2719C10.5281 39.3747 10.479 39.4996 10.4868 39.6247C10.4875 39.7424 10.5378 39.8528 10.6306 39.9339C10.7306 40.0371 10.8374 40.0888 10.9581 40.0817C11.086 40.082 11.1923 40.0308 11.2911 39.928C11.3335 39.884 11.3688 39.8326 11.3969 39.7738C11.4178 39.7076 11.4388 39.6415 11.4384 39.5679L11.7527 39.8923C11.7389 39.9658 11.7037 40.0319 11.6685 40.098C11.6334 40.1641 11.5839 40.2155 11.5345 40.2669C11.4427 40.3623 11.3507 40.4283 11.2444 40.4795C11.1381 40.5308 11.0317 40.5526 10.9252 40.5598C10.8187 40.5669 10.712 40.5446 10.5981 40.5002C10.4984 40.4558 10.3986 40.3821 10.3057 40.2862C10.2129 40.1904 10.1341 40.0799 10.0909 39.9621C10.0476 39.8444 10.0328 39.7266 10.0392 39.6016C10.0457 39.4913 10.0665 39.3957 10.1156 39.2855C10.1578 39.1974 10.2212 39.1019 10.2989 39.0211C10.3554 38.9624 10.419 38.9111 10.4756 38.8671C10.5393 38.8304 10.6031 38.7938 10.674 38.7792Z" fill="#D9232E"/>
<path id="path41" d="M10.9141 38.459L11.9948 37.336L13.1449 38.5227L12.8199 38.8604L11.9484 37.9611L11.5105 38.4162L12.382 39.3154L12.0641 39.6457L10.9141 38.459Z" fill="#D9232E"/>
<path id="path43" d="M12.8346 36.3877C12.9265 36.2923 13.0185 36.2263 13.1247 36.1751C13.2381 36.1165 13.3373 36.0873 13.4581 36.0802C13.5646 36.0731 13.6855 36.0954 13.7994 36.1398C13.9061 36.1768 14.006 36.2506 14.0988 36.3464C14.1917 36.4422 14.2633 36.5453 14.2994 36.6557C14.3427 36.7735 14.3575 36.8912 14.3581 37.0089C14.3446 37.1266 14.3239 37.2369 14.2677 37.3544C14.2256 37.4573 14.148 37.5528 14.0562 37.6482C13.9643 37.7436 13.8724 37.8243 13.7662 37.8755C13.6599 37.9268 13.5464 37.956 13.4399 37.9631C13.3192 37.9702 13.2125 37.9479 13.0986 37.9035C12.9918 37.8665 12.8849 37.8 12.7921 37.7042C12.6992 37.6084 12.6347 37.4979 12.5986 37.3875C12.5553 37.2697 12.5262 37.152 12.5398 37.0343C12.5392 36.9166 12.5741 36.8064 12.6232 36.6962C12.6723 36.586 12.7428 36.4831 12.8346 36.3877ZM13.7704 37.3533C13.8623 37.2579 13.9114 37.1477 13.9036 37.0226C13.9029 36.8902 13.8597 36.7872 13.7668 36.6913C13.674 36.5955 13.5743 36.5512 13.4464 36.5509C13.3256 36.5433 13.2122 36.5871 13.1204 36.6826C13.0286 36.778 12.9866 36.8956 12.9873 37.028C12.9879 37.1457 13.0312 37.2634 13.1241 37.3593C13.2169 37.4551 13.3237 37.4921 13.4445 37.4997C13.5723 37.5 13.6857 37.4561 13.7704 37.3533Z" fill="#D9232E"/>
<path id="path45" d="M15.0716 36.2097L15.836 36.9984L15.5111 37.336L13.7467 35.5154L14.0716 35.1777L14.2216 35.3325C14.1998 35.2369 14.2063 35.1266 14.2342 35.0384C14.262 34.9354 14.3255 34.84 14.4032 34.7592C14.5727 34.5831 14.764 34.5026 14.9914 34.5178C15.2046 34.533 15.404 34.6217 15.5826 34.806C15.754 34.9829 15.8475 35.1964 15.8558 35.4244C15.8642 35.6524 15.7871 35.8509 15.6176 36.027C15.547 36.1004 15.462 36.1591 15.3699 36.1956C15.2778 36.2322 15.1783 36.232 15.0716 36.2097ZM14.6041 35.1421C14.5123 35.2376 14.4703 35.3552 14.471 35.4728C14.4717 35.6052 14.522 35.7157 14.6149 35.8115C14.7077 35.9073 14.8146 35.959 14.9353 35.9519C15.0561 35.9596 15.1623 35.9083 15.2542 35.8129C15.346 35.7175 15.3951 35.6073 15.3873 35.4822C15.3867 35.3645 15.3434 35.2468 15.2434 35.1436C15.1577 35.0551 15.0509 35.0034 14.9302 35.0105C14.8094 35.0029 14.696 35.0467 14.6041 35.1421Z" fill="#D9232E"/>
<path id="path47" d="M16.342 33.3923L16.0312 33.7153L16.9027 34.6145L16.5778 34.9522L15.7063 34.0529L15.3885 34.3832L15.1099 34.0957L16.0634 33.1049L16.342 33.3923Z" fill="#D9232E"/>
</g>
</g>
</g>
</g>
<defs>
<clipPath id="clip0_768_30461">
<rect width="37.1697" height="46.2326" fill="white" transform="translate(0.289551 0.767578)"/>
</clipPath>
</defs>
</svg>
