<svg style='display: none'>

<symbol id="telegram"  viewBox="0 0 24 24"  xmlns="http://www.w3.org/2000/svg">
<g>
<path fill="inherit" id="Subtract" fill-rule="evenodd" clip-rule="evenodd" d="M12 23C18.0751 23 23 18.0751 23 12C23 5.92487 18.0751 1 12 1C5.92487 1 1 5.92487 1 12C1 18.0751 5.92487 23 12 23ZM15.7011 7.20407C16.0137 7.07856 16.3161 7.10192 16.5086 7.26516C16.6466 7.38194 16.7894 7.61962 16.6867 8.08675L15.004 16.8332C14.9899 16.8696 14.8549 17.1912 14.5173 17.3298C14.4183 17.3704 14.3146 17.3907 14.2065 17.3907C14.0666 17.3907 13.9201 17.3568 13.7671 17.289L13.7135 17.2569L11.4607 15.5001L10.0652 16.7944C9.94097 16.892 9.74899 16.96 9.55597 16.8855C9.33601 16.8186 9.2105 16.4931 9.1335 16.2454C9.01954 15.8786 8.53508 14.2657 8.34213 13.6233L8.30036 13.4842L6.01782 12.7026C5.96084 12.6819 5.49422 12.5017 5.44084 12.0666C5.38103 11.5841 5.96161 11.3675 6.02809 11.3444C6.39358 11.187 15.3723 7.336 15.7011 7.20407ZM9.5434 15.8501L10.3134 13.7968L14.6767 8.92015L8.7734 13.2835L9.5434 15.8501Z" />
</g>
</symbol>

<symbol id="whatsapp" viewBox="0 0 24 24" xmlns="http://www.w3.org/2000/svg">
<g >
<path fill="inherit" id="Vector" d="M12 1C5.92525 1 1 5.92525 1 12C1 14.0636 1.57965 15.9876 2.56836 17.6379L1.09847 23L6.5752 21.5623C8.17691 22.473 10.0259 23 12 23C18.0748 23 23 18.0748 23 12C23 5.92525 18.0748 1 12 1ZM8.23486 6.86882C8.41361 6.86882 8.59728 6.86773 8.75586 6.87598C8.95203 6.88056 9.16554 6.89493 9.36996 7.34684C9.61287 7.88401 10.1418 9.23158 10.2096 9.36816C10.2775 9.50475 10.3255 9.66565 10.2311 9.8444C10.1413 10.0277 10.0946 10.1387 9.96257 10.3009C9.82598 10.4586 9.67632 10.6544 9.55257 10.7736C9.41599 10.9102 9.27495 11.0599 9.43262 11.3322C9.59028 11.6044 10.1378 12.4969 10.9473 13.2174C11.9877 14.1469 12.8655 14.4326 13.1387 14.5692C13.4118 14.7058 13.57 14.6845 13.7277 14.5011C13.89 14.3224 14.4091 13.709 14.5924 13.4359C14.7712 13.1627 14.9537 13.21 15.2012 13.2998C15.4523 13.3896 16.7918 14.0495 17.0649 14.186C17.3381 14.3226 17.5172 14.3902 17.5859 14.5011C17.6565 14.6157 17.6566 15.1612 17.4302 15.7974C17.2038 16.4326 16.0919 17.0469 15.5933 17.09C15.09 17.1368 14.6203 17.3162 12.3223 16.4115C9.55027 15.3197 7.80211 12.4805 7.66553 12.2972C7.52894 12.1185 6.5555 10.8211 6.5555 9.48275C6.5555 8.13983 7.2596 7.48215 7.50619 7.20898C7.75735 6.93582 8.05153 6.86882 8.23486 6.86882Z" />
</g>
</symbol>
</svg>