<svg width="24" height="24" viewBox="0 0 24 24" fill="none" xmlns="http://www.w3.org/2000/svg">
<g id="Telegram">
<path id="Subtract" fill-rule="evenodd" clip-rule="evenodd" d="M12 23C18.0751 23 23 18.0751 23 12C23 5.92487 18.0751 1 12 1C5.92487 1 1 5.92487 1 12C1 18.0751 5.92487 23 12 23ZM15.7011 7.20407C16.0137 7.07856 16.3161 7.10192 16.5086 7.26516C16.6466 7.38194 16.7894 7.61962 16.6867 8.08675L15.004 16.8332C14.9899 16.8696 14.8549 17.1912 14.5173 17.3298C14.4183 17.3704 14.3146 17.3907 14.2065 17.3907C14.0666 17.3907 13.9201 17.3568 13.7671 17.289L13.7135 17.2569L11.4607 15.5001L10.0652 16.7944C9.94098 16.892 9.74899 16.96 9.55597 16.8855C9.33601 16.8186 9.2105 16.4931 9.1335 16.2454C9.01957 15.8787 8.53532 14.2665 8.34227 13.6237L8.30036 13.4842L6.01782 12.7026C5.96084 12.6819 5.49422 12.5017 5.44084 12.0666C5.38103 11.5841 5.96161 11.3675 6.02809 11.3444C6.39358 11.187 15.3723 7.336 15.7011 7.20407ZM9.5434 15.8501L10.3134 13.7968L14.6767 8.92015L8.7734 13.2835L9.5434 15.8501Z" fill="#161314"/>
</g>
</svg>